<svg xmlns="http://www.w3.org/2000/svg" xmlns:xlink="http://www.w3.org/1999/xlink" width="3992" zoomAndPan="magnify" viewBox="0 0 2994 1682.999932" height="2244" preserveAspectRatio="xMidYMid meet" version="1.0"><defs><filter x="0%" y="0%" width="100%" height="100%" id="35792a4747"><feColorMatrix values="0 0 0 0 1 0 0 0 0 1 0 0 0 0 1 0 0 0 1 0" color-interpolation-filters="sRGB"/></filter><mask id="243a8afc07"><g filter="url(#35792a4747)"><rect x="-299.4" width="3592.8" fill="#000000" y="-168.299993" height="2019.599918" fill-opacity="0.1"/></g></mask><clipPath id="925460e99e"><path d="M 127 0.765625 L 132 0.765625 L 132 756 L 127 756 Z M 127 0.765625 " clip-rule="nonzero"/></clipPath><clipPath id="fb1cb773a2"><path d="M 252 0.765625 L 257 0.765625 L 257 756 L 252 756 Z M 252 0.765625 " clip-rule="nonzero"/></clipPath><clipPath id="2b72566db4"><path d="M 378 0.765625 L 382 0.765625 L 382 756 L 378 756 Z M 378 0.765625 " clip-rule="nonzero"/></clipPath><clipPath id="881ff20d26"><path d="M 503 0.765625 L 507 0.765625 L 507 756 L 503 756 Z M 503 0.765625 " clip-rule="nonzero"/></clipPath><clipPath id="ffec43b408"><path d="M 628 0.765625 L 632 0.765625 L 632 756 L 628 756 Z M 628 0.765625 " clip-rule="nonzero"/></clipPath><clipPath id="a4caa390c8"><path d="M 753 0.765625 L 757 0.765625 L 757 756 L 753 756 Z M 753 0.765625 " clip-rule="nonzero"/></clipPath><clipPath id="d46975a294"><path d="M 878 0.765625 L 882 0.765625 L 882 756 L 878 756 Z M 878 0.765625 " clip-rule="nonzero"/></clipPath><clipPath id="c35eb31d6a"><path d="M 1003 0.765625 L 1007 0.765625 L 1007 756 L 1003 756 Z M 1003 0.765625 " clip-rule="nonzero"/></clipPath><clipPath id="6b3a69c113"><path d="M 1128 0.765625 L 1132 0.765625 L 1132 756 L 1128 756 Z M 1128 0.765625 " clip-rule="nonzero"/></clipPath><clipPath id="7217f5d27b"><path d="M 0.75 127 L 1229 127 L 1229 132 L 0.75 132 Z M 0.75 127 " clip-rule="nonzero"/></clipPath><clipPath id="2158eeb7b7"><path d="M 0.75 253 L 1229 253 L 1229 257 L 0.75 257 Z M 0.75 253 " clip-rule="nonzero"/></clipPath><clipPath id="1780721acf"><path d="M 0.75 378 L 1229 378 L 1229 382 L 0.75 382 Z M 0.75 378 " clip-rule="nonzero"/></clipPath><clipPath id="1c26cf19ed"><path d="M 0.75 503 L 1229 503 L 1229 507 L 0.75 507 Z M 0.75 503 " clip-rule="nonzero"/></clipPath><clipPath id="7b3d4c703d"><path d="M 0.75 628 L 1229 628 L 1229 632 L 0.75 632 Z M 0.75 628 " clip-rule="nonzero"/></clipPath><clipPath id="314bab6d06"><path d="M 0.75 753 L 1229 753 L 1229 756 L 0.75 756 Z M 0.75 753 " clip-rule="nonzero"/></clipPath><clipPath id="959d3a9be2"><rect x="0" width="1229" y="0" height="756"/></clipPath><mask id="9a5b95f4c1"><g filter="url(#35792a4747)"><rect x="-299.4" width="3592.8" fill="#000000" y="-168.299993" height="2019.599918" fill-opacity="0.1"/></g></mask><clipPath id="626a42a29c"><path d="M 119 0 L 123 0 L 123 1149.839844 L 119 1149.839844 Z M 119 0 " clip-rule="nonzero"/></clipPath><clipPath id="2a96bc5993"><path d="M 244 0 L 248 0 L 248 1149.839844 L 244 1149.839844 Z M 244 0 " clip-rule="nonzero"/></clipPath><clipPath id="55d06cf319"><path d="M 369 0 L 373 0 L 373 1149.839844 L 369 1149.839844 Z M 369 0 " clip-rule="nonzero"/></clipPath><clipPath id="85b46e2397"><path d="M 494 0 L 498 0 L 498 1149.839844 L 494 1149.839844 Z M 494 0 " clip-rule="nonzero"/></clipPath><clipPath id="4632f6db2b"><path d="M 619 0 L 623 0 L 623 1149.839844 L 619 1149.839844 Z M 619 0 " clip-rule="nonzero"/></clipPath><clipPath id="f40f9cdea7"><path d="M 744 0 L 748 0 L 748 1149.839844 L 744 1149.839844 Z M 744 0 " clip-rule="nonzero"/></clipPath><clipPath id="bd97a0b695"><path d="M 869 0 L 873 0 L 873 1149.839844 L 869 1149.839844 Z M 869 0 " clip-rule="nonzero"/></clipPath><clipPath id="8a994bf5aa"><path d="M 994 0 L 998 0 L 998 1149.839844 L 994 1149.839844 Z M 994 0 " clip-rule="nonzero"/></clipPath><clipPath id="eb1d75e9f1"><path d="M 1119 0 L 1123 0 L 1123 1149.839844 L 1119 1149.839844 Z M 1119 0 " clip-rule="nonzero"/></clipPath><clipPath id="83f15e40aa"><path d="M 0 18 L 1250 18 L 1250 23 L 0 23 Z M 0 18 " clip-rule="nonzero"/></clipPath><clipPath id="9f3b976f9e"><path d="M 0 143 L 1250 143 L 1250 148 L 0 148 Z M 0 143 " clip-rule="nonzero"/></clipPath><clipPath id="bfd3d7ce30"><path d="M 0 268 L 1250 268 L 1250 273 L 0 273 Z M 0 268 " clip-rule="nonzero"/></clipPath><clipPath id="83b3118fc8"><path d="M 0 393 L 1250 393 L 1250 398 L 0 398 Z M 0 393 " clip-rule="nonzero"/></clipPath><clipPath id="25bf37c0ea"><path d="M 0 519 L 1250 519 L 1250 523 L 0 523 Z M 0 519 " clip-rule="nonzero"/></clipPath><clipPath id="b467d65d8d"><path d="M 0 644 L 1250 644 L 1250 648 L 0 648 Z M 0 644 " clip-rule="nonzero"/></clipPath><clipPath id="525e602486"><path d="M 0 769 L 1250 769 L 1250 773 L 0 773 Z M 0 769 " clip-rule="nonzero"/></clipPath><clipPath id="a9858868bb"><path d="M 0 894 L 1250 894 L 1250 898 L 0 898 Z M 0 894 " clip-rule="nonzero"/></clipPath><clipPath id="8ea7801903"><path d="M 0 1019 L 1250 1019 L 1250 1023 L 0 1023 Z M 0 1019 " clip-rule="nonzero"/></clipPath><clipPath id="ae781ed787"><rect x="0" width="1251" y="0" height="1150"/></clipPath></defs><rect x="-299.4" width="3592.8" fill="#ffffff" y="-168.299993" height="2019.599918" fill-opacity="1"/><rect x="-299.4" width="3592.8" fill="#fff8f0" y="-168.299993" height="2019.599918" fill-opacity="1"/><g mask="url(#243a8afc07)"><g transform="matrix(1, 0, 0, 1, 1765, 927)"><g clip-path="url(#959d3a9be2)"><g clip-path="url(#925460e99e)"><path fill="#000000" d="M 127.949219 0.765625 L 131.214844 0.765625 L 131.214844 1634.019531 L 127.949219 1634.019531 Z M 127.949219 0.765625 " fill-opacity="1" fill-rule="nonzero"/></g><g clip-path="url(#fb1cb773a2)"><path fill="#000000" d="M 252.992188 0.765625 L 256.257812 0.765625 L 256.257812 1634.019531 L 252.992188 1634.019531 Z M 252.992188 0.765625 " fill-opacity="1" fill-rule="nonzero"/></g><g clip-path="url(#2b72566db4)"><path fill="#000000" d="M 378.066406 0.765625 L 381.332031 0.765625 L 381.332031 1634.019531 L 378.066406 1634.019531 Z M 378.066406 0.765625 " fill-opacity="1" fill-rule="nonzero"/></g><g clip-path="url(#881ff20d26)"><path fill="#000000" d="M 503.109375 0.765625 L 506.375 0.765625 L 506.375 1634.019531 L 503.109375 1634.019531 Z M 503.109375 0.765625 " fill-opacity="1" fill-rule="nonzero"/></g><g clip-path="url(#ffec43b408)"><path fill="#000000" d="M 628.148438 0.765625 L 631.417969 0.765625 L 631.417969 1634.019531 L 628.148438 1634.019531 Z M 628.148438 0.765625 " fill-opacity="1" fill-rule="nonzero"/></g><g clip-path="url(#a4caa390c8)"><path fill="#000000" d="M 753.222656 0.765625 L 756.492188 0.765625 L 756.492188 1634.019531 L 753.222656 1634.019531 Z M 753.222656 0.765625 " fill-opacity="1" fill-rule="nonzero"/></g><g clip-path="url(#d46975a294)"><path fill="#000000" d="M 878.265625 0.765625 L 881.53125 0.765625 L 881.53125 1634.019531 L 878.265625 1634.019531 Z M 878.265625 0.765625 " fill-opacity="1" fill-rule="nonzero"/></g><g clip-path="url(#c35eb31d6a)"><path fill="#000000" d="M 1003.339844 0.765625 L 1006.609375 0.765625 L 1006.609375 1634.019531 L 1003.339844 1634.019531 Z M 1003.339844 0.765625 " fill-opacity="1" fill-rule="nonzero"/></g><g clip-path="url(#6b3a69c113)"><path fill="#000000" d="M 1128.382812 0.765625 L 1131.648438 0.765625 L 1131.648438 1634.019531 L 1128.382812 1634.019531 Z M 1128.382812 0.765625 " fill-opacity="1" fill-rule="nonzero"/></g><g clip-path="url(#7217f5d27b)"><path fill="#000000" d="M 0.75 127.960938 L 1634.003906 127.960938 L 1634.003906 131.230469 L 0.75 131.230469 Z M 0.75 127.960938 " fill-opacity="1" fill-rule="nonzero"/></g><g clip-path="url(#2158eeb7b7)"><path fill="#000000" d="M 0.75 253.003906 L 1634.003906 253.003906 L 1634.003906 256.269531 L 0.75 256.269531 Z M 0.75 253.003906 " fill-opacity="1" fill-rule="nonzero"/></g><g clip-path="url(#1780721acf)"><path fill="#000000" d="M 0.75 378.078125 L 1634.003906 378.078125 L 1634.003906 381.34375 L 0.75 381.34375 Z M 0.75 378.078125 " fill-opacity="1" fill-rule="nonzero"/></g><g clip-path="url(#1c26cf19ed)"><path fill="#000000" d="M 0.75 503.121094 L 1634.003906 503.121094 L 1634.003906 506.386719 L 0.75 506.386719 Z M 0.75 503.121094 " fill-opacity="1" fill-rule="nonzero"/></g><g clip-path="url(#7b3d4c703d)"><path fill="#000000" d="M 0.75 628.164062 L 1634.003906 628.164062 L 1634.003906 631.429688 L 0.75 631.429688 Z M 0.75 628.164062 " fill-opacity="1" fill-rule="nonzero"/></g><g clip-path="url(#314bab6d06)"><path fill="#000000" d="M 0.75 753.238281 L 1634.003906 753.238281 L 1634.003906 756.503906 L 0.75 756.503906 Z M 0.75 753.238281 " fill-opacity="1" fill-rule="nonzero"/></g></g></g></g><g mask="url(#9a5b95f4c1)"><g transform="matrix(1, 0, 0, 1, 0, 0)"><g clip-path="url(#ae781ed787)"><g clip-path="url(#626a42a29c)"><path fill="#000000" d="M 119.066406 -483.578125 L 122.332031 -483.578125 L 122.332031 1149.675781 L 119.066406 1149.675781 Z M 119.066406 -483.578125 " fill-opacity="1" fill-rule="nonzero"/></g><g clip-path="url(#2a96bc5993)"><path fill="#000000" d="M 244.109375 -483.578125 L 247.375 -483.578125 L 247.375 1149.675781 L 244.109375 1149.675781 Z M 244.109375 -483.578125 " fill-opacity="1" fill-rule="nonzero"/></g><g clip-path="url(#55d06cf319)"><path fill="#000000" d="M 369.183594 -483.578125 L 372.449219 -483.578125 L 372.449219 1149.675781 L 369.183594 1149.675781 Z M 369.183594 -483.578125 " fill-opacity="1" fill-rule="nonzero"/></g><g clip-path="url(#85b46e2397)"><path fill="#000000" d="M 494.226562 -483.578125 L 497.492188 -483.578125 L 497.492188 1149.675781 L 494.226562 1149.675781 Z M 494.226562 -483.578125 " fill-opacity="1" fill-rule="nonzero"/></g><g clip-path="url(#4632f6db2b)"><path fill="#000000" d="M 619.300781 -483.578125 L 622.566406 -483.578125 L 622.566406 1149.675781 L 619.300781 1149.675781 Z M 619.300781 -483.578125 " fill-opacity="1" fill-rule="nonzero"/></g><g clip-path="url(#f40f9cdea7)"><path fill="#000000" d="M 744.34375 -483.578125 L 747.609375 -483.578125 L 747.609375 1149.675781 L 744.34375 1149.675781 Z M 744.34375 -483.578125 " fill-opacity="1" fill-rule="nonzero"/></g><g clip-path="url(#bd97a0b695)"><path fill="#000000" d="M 869.382812 -483.578125 L 872.652344 -483.578125 L 872.652344 1149.675781 L 869.382812 1149.675781 Z M 869.382812 -483.578125 " fill-opacity="1" fill-rule="nonzero"/></g><g clip-path="url(#8a994bf5aa)"><path fill="#000000" d="M 994.457031 -483.578125 L 997.726562 -483.578125 L 997.726562 1149.675781 L 994.457031 1149.675781 Z M 994.457031 -483.578125 " fill-opacity="1" fill-rule="nonzero"/></g><g clip-path="url(#eb1d75e9f1)"><path fill="#000000" d="M 1119.5 -483.578125 L 1122.765625 -483.578125 L 1122.765625 1149.675781 L 1119.5 1149.675781 Z M 1119.5 -483.578125 " fill-opacity="1" fill-rule="nonzero"/></g><g clip-path="url(#83f15e40aa)"><path fill="#000000" d="M -383.289062 18.777344 L 1249.964844 18.777344 L 1249.964844 22.042969 L -383.289062 22.042969 Z M -383.289062 18.777344 " fill-opacity="1" fill-rule="nonzero"/></g><g clip-path="url(#9f3b976f9e)"><path fill="#000000" d="M -383.289062 143.820312 L 1249.964844 143.820312 L 1249.964844 147.085938 L -383.289062 147.085938 Z M -383.289062 143.820312 " fill-opacity="1" fill-rule="nonzero"/></g><g clip-path="url(#bfd3d7ce30)"><path fill="#000000" d="M -383.289062 268.894531 L 1249.964844 268.894531 L 1249.964844 272.160156 L -383.289062 272.160156 Z M -383.289062 268.894531 " fill-opacity="1" fill-rule="nonzero"/></g><g clip-path="url(#83b3118fc8)"><path fill="#000000" d="M -383.289062 393.9375 L 1249.964844 393.9375 L 1249.964844 397.203125 L -383.289062 397.203125 Z M -383.289062 393.9375 " fill-opacity="1" fill-rule="nonzero"/></g><g clip-path="url(#25bf37c0ea)"><path fill="#000000" d="M -383.289062 519.011719 L 1249.964844 519.011719 L 1249.964844 522.277344 L -383.289062 522.277344 Z M -383.289062 519.011719 " fill-opacity="1" fill-rule="nonzero"/></g><g clip-path="url(#b467d65d8d)"><path fill="#000000" d="M -383.289062 644.050781 L 1249.964844 644.050781 L 1249.964844 647.320312 L -383.289062 647.320312 Z M -383.289062 644.050781 " fill-opacity="1" fill-rule="nonzero"/></g><g clip-path="url(#525e602486)"><path fill="#000000" d="M -383.289062 769.09375 L 1249.964844 769.09375 L 1249.964844 772.359375 L -383.289062 772.359375 Z M -383.289062 769.09375 " fill-opacity="1" fill-rule="nonzero"/></g><g clip-path="url(#a9858868bb)"><path fill="#000000" d="M -383.289062 894.167969 L 1249.964844 894.167969 L 1249.964844 897.433594 L -383.289062 897.433594 Z M -383.289062 894.167969 " fill-opacity="1" fill-rule="nonzero"/></g><g clip-path="url(#8ea7801903)"><path fill="#000000" d="M -383.289062 1019.210938 L 1249.964844 1019.210938 L 1249.964844 1022.476562 L -383.289062 1022.476562 Z M -383.289062 1019.210938 " fill-opacity="1" fill-rule="nonzero"/></g></g></g></g><path fill="#5d9324" d="M 3214.574219 245.550781 C 3202.28125 248.253906 3194.089844 236.660156 3187.367188 228.546875 C 3179.660156 219.324219 3171.058594 211.035156 3161.554688 203.675781 C 3151.949219 196.246094 3141.683594 189.878906 3130.757812 184.578125 C 3119.828125 179.277344 3108.476562 175.152344 3096.695312 172.207031 C 3090.710938 170.628906 3084.65625 169.40625 3078.53125 168.539062 C 3072.402344 167.675781 3066.246094 167.171875 3060.058594 167.03125 C 3053.875 166.886719 3047.703125 167.109375 3041.542969 167.695312 C 3035.382812 168.28125 3029.277344 169.222656 3023.230469 170.527344 C 3017.148438 171.839844 3011.269531 173.757812 3005.582031 176.277344 C 2999.894531 178.792969 2994.523438 181.863281 2989.464844 185.484375 C 2984.480469 189.3125 2979.921875 193.589844 2975.785156 198.320312 C 2971.644531 203.050781 2968.011719 208.140625 2964.882812 213.589844 C 2950.542969 237.558594 2943.042969 265.339844 2936.734375 292.300781 C 2930.136719 320.492188 2925.261719 349.050781 2917.597656 376.953125 C 2904.40625 424.6875 2881.625 472.910156 2836.839844 498.070312 C 2817.542969 508.96875 2794.023438 515.441406 2771.855469 511.304688 C 2770.402344 511.109375 2768.964844 510.832031 2767.542969 510.464844 C 2766.125 510.101562 2764.730469 509.65625 2763.359375 509.128906 C 2761.992188 508.601562 2760.660156 507.996094 2759.363281 507.3125 C 2758.066406 506.625 2756.8125 505.867188 2755.605469 505.035156 C 2754.394531 504.203125 2753.242188 503.304688 2752.140625 502.335938 C 2751.035156 501.367188 2749.996094 500.339844 2749.015625 499.25 C 2748.035156 498.160156 2747.121094 497.015625 2746.273438 495.816406 C 2745.425781 494.621094 2744.652344 493.375 2743.953125 492.085938 C 2743.398438 490.953125 2742.933594 489.78125 2742.550781 488.578125 C 2742.167969 487.375 2741.878906 486.152344 2741.675781 484.90625 C 2741.472656 483.660156 2741.363281 482.40625 2741.34375 481.140625 C 2741.324219 479.878906 2741.398438 478.621094 2741.5625 477.371094 C 2741.726562 476.121094 2741.980469 474.886719 2742.328125 473.671875 C 2742.671875 472.457031 2743.105469 471.273438 2743.621094 470.121094 C 2744.140625 468.972656 2744.738281 467.863281 2745.417969 466.800781 C 2746.101562 465.738281 2746.855469 464.726562 2747.679688 463.773438 C 2754.769531 455.292969 2765.21875 450.457031 2774.476562 444.886719 C 2784.613281 438.765625 2793.914062 431.566406 2802.382812 423.292969 C 2810.640625 414.953125 2818.226562 406.039062 2825.144531 396.554688 C 2832.058594 387.070312 2838.226562 377.121094 2843.640625 366.707031 C 2866.792969 323.933594 2880.519531 276.9375 2902.109375 233.460938 C 2912.625 211.332031 2925.996094 191.09375 2942.222656 172.738281 C 2950.121094 164.066406 2958.855469 156.339844 2968.421875 149.554688 C 2977.992188 142.769531 2988.175781 137.085938 2998.972656 132.503906 C 3004.296875 130.269531 3009.726562 128.316406 3015.253906 126.644531 C 3020.78125 124.972656 3026.378906 123.589844 3032.050781 122.496094 C 3037.722656 121.402344 3043.433594 120.601562 3049.1875 120.101562 C 3054.941406 119.597656 3060.703125 119.394531 3066.476562 119.484375 C 3072.253906 119.578125 3078.007812 119.96875 3083.742188 120.65625 C 3089.476562 121.347656 3095.160156 122.328125 3100.792969 123.605469 C 3106.425781 124.878906 3111.976562 126.445312 3117.445312 128.292969 C 3122.917969 130.144531 3128.277344 132.269531 3133.53125 134.675781 C 3147.988281 141.449219 3161.25 150.070312 3173.316406 160.53125 C 3143.117188 126.847656 3097.1875 111.976562 3053.34375 105.257812 C 3005.527344 97.921875 2954.722656 99.929688 2913.011719 127.011719 C 2872.652344 153.195312 2846.183594 195.316406 2828.726562 239.238281 C 2819.070312 264.703125 2810.96875 290.652344 2804.429688 317.089844 C 2798.53125 339.542969 2792.875 364.945312 2772.347656 378.550781 C 2770.410156 379.964844 2768.347656 381.175781 2766.167969 382.179688 C 2763.988281 383.1875 2761.730469 383.964844 2759.394531 384.523438 C 2757.058594 385.078125 2754.691406 385.398438 2752.292969 385.480469 C 2749.894531 385.566406 2747.511719 385.414062 2745.140625 385.023438 C 2737.5625 383.261719 2729.488281 377.445312 2729.695312 368.878906 C 2729.992188 366.25 2730.761719 363.761719 2731.996094 361.421875 C 2733.234375 359.082031 2734.859375 357.046875 2736.863281 355.316406 C 2741.058594 351.226562 2745.003906 346.910156 2748.707031 342.371094 C 2756.203125 332.132812 2762.0625 321.027344 2766.285156 309.058594 C 2775.542969 283.859375 2778.984375 257.0625 2785.949219 231.210938 C 2791.605469 209.8125 2800.34375 189.761719 2812.175781 171.058594 C 2815.117188 166.449219 2818.21875 161.945312 2821.480469 157.554688 C 2824.746094 153.164062 2828.160156 148.894531 2831.730469 144.746094 C 2835.296875 140.601562 2839.007812 136.585938 2842.863281 132.703125 C 2846.714844 128.820312 2850.703125 125.078125 2854.824219 121.480469 C 2858.945312 117.882812 2863.191406 114.4375 2867.558594 111.140625 C 2871.925781 107.84375 2876.402344 104.710938 2880.992188 101.734375 C 2885.585938 98.757812 2890.273438 95.949219 2895.066406 93.308594 C 2899.855469 90.667969 2904.738281 88.199219 2909.703125 85.90625 C 2914.671875 83.613281 2919.714844 81.5 2924.832031 79.566406 C 2929.949219 77.632812 2935.128906 75.882812 2940.371094 74.320312 C 2945.613281 72.757812 2950.90625 71.382812 2956.246094 70.195312 C 2961.585938 69.007812 2966.964844 68.015625 2972.375 67.210938 C 2977.785156 66.40625 2983.21875 65.800781 2988.675781 65.382812 C 2994.128906 64.96875 2999.59375 64.746094 3005.0625 64.722656 C 3010.535156 64.695312 3016 64.867188 3021.457031 65.230469 C 3026.917969 65.59375 3032.355469 66.152344 3037.773438 66.90625 C 3049.453125 68.386719 3060.972656 70.675781 3072.332031 73.765625 C 3083.691406 76.855469 3094.78125 80.722656 3105.601562 85.359375 C 3116.421875 90 3126.867188 95.367188 3136.941406 101.464844 C 3147.011719 107.5625 3156.609375 114.332031 3165.734375 121.769531 C 3197.777344 148.277344 3224.082031 185.769531 3225.226562 228.628906 C 3225.238281 228.851562 3225.207031 229.066406 3225.136719 229.277344 C 3225.066406 229.488281 3224.960938 229.679688 3224.824219 229.855469 C 3224.683594 230.027344 3224.519531 230.171875 3224.328125 230.285156 C 3224.136719 230.398438 3223.929688 230.472656 3223.710938 230.511719 C 3223.917969 231.308594 3224.039062 232.113281 3224.082031 232.933594 C 3224.125 233.75 3224.085938 234.566406 3223.964844 235.375 C 3223.847656 236.1875 3223.648438 236.976562 3223.367188 237.75 C 3223.089844 238.519531 3222.738281 239.257812 3222.3125 239.957031 C 3221.886719 240.65625 3221.394531 241.308594 3220.839844 241.910156 C 3220.285156 242.511719 3219.671875 243.054688 3219.007812 243.535156 C 3218.34375 244.015625 3217.640625 244.425781 3216.894531 244.765625 C 3216.144531 245.101562 3215.375 245.367188 3214.574219 245.550781 Z M 3214.574219 245.550781 " fill-opacity="1" fill-rule="nonzero"/><path fill="#5d9324" d="M 3161.964844 291.972656 C 3161.027344 293.222656 3159.796875 294.027344 3158.277344 294.390625 C 3158.25 294.515625 3158.203125 294.640625 3158.144531 294.753906 C 3158.085938 294.871094 3158.015625 294.980469 3157.933594 295.078125 C 3157.847656 295.179688 3157.753906 295.265625 3157.648438 295.34375 C 3157.542969 295.421875 3157.429688 295.484375 3157.3125 295.535156 C 3157.191406 295.582031 3157.066406 295.617188 3156.9375 295.640625 C 3156.808594 295.660156 3156.679688 295.664062 3156.550781 295.65625 C 3156.421875 295.644531 3156.292969 295.617188 3156.171875 295.578125 C 3156.046875 295.539062 3155.929688 295.484375 3155.820312 295.414062 C 3155.039062 294.964844 3154.261719 294.511719 3153.523438 294.023438 L 3153.113281 294.023438 C 3152.941406 293.945312 3152.789062 293.835938 3152.664062 293.695312 L 3145.78125 289.597656 C 3145.507812 289.824219 3145.191406 289.9375 3144.839844 289.9375 C 3144.484375 289.9375 3144.167969 289.824219 3143.894531 289.597656 C 3140.75 287.402344 3137.308594 285.871094 3133.570312 285.007812 C 3133.53125 285.160156 3133.472656 285.308594 3133.398438 285.449219 C 3133.324219 285.589844 3133.234375 285.71875 3133.125 285.835938 C 3133.019531 285.953125 3132.898438 286.058594 3132.765625 286.144531 C 3132.632812 286.234375 3132.492188 286.304688 3132.339844 286.355469 C 3132.191406 286.410156 3132.035156 286.441406 3131.878906 286.457031 C 3131.71875 286.472656 3131.5625 286.464844 3131.402344 286.441406 C 3131.246094 286.417969 3131.09375 286.371094 3130.949219 286.3125 C 3130.800781 286.25 3130.664062 286.167969 3130.539062 286.074219 C 3129.800781 285.457031 3128.980469 284.84375 3128.203125 284.3125 C 3126.835938 284.195312 3125.472656 284.195312 3124.105469 284.3125 C 3088.089844 286.726562 3077.96875 327.375 3073.667969 356.546875 C 3068.136719 393.875 3068.792969 431.691406 3068.546875 469.304688 C 3068.546875 504.871094 3067.191406 540.640625 3059.777344 575.511719 C 3056.269531 592.46875 3051 608.855469 3043.960938 624.679688 C 3040.886719 632.203125 3037.15625 639.386719 3032.769531 646.234375 C 3028.382812 653.078125 3023.414062 659.46875 3017.859375 665.40625 C 3008.191406 674.910156 2995.203125 681.015625 2981.558594 677.699219 C 2980.777344 677.527344 2980.003906 677.316406 2979.242188 677.070312 C 2978.480469 676.824219 2977.734375 676.542969 2977 676.222656 C 2976.265625 675.902344 2975.550781 675.546875 2974.851562 675.160156 C 2974.152344 674.769531 2973.472656 674.347656 2972.816406 673.890625 C 2972.15625 673.433594 2971.523438 672.949219 2970.914062 672.429688 C 2970.300781 671.914062 2969.71875 671.367188 2969.160156 670.792969 C 2968.605469 670.214844 2968.078125 669.617188 2967.578125 668.988281 C 2967.078125 668.363281 2966.613281 667.714844 2966.175781 667.042969 C 2965.742188 666.371094 2965.339844 665.679688 2964.972656 664.96875 C 2964.605469 664.257812 2964.273438 663.53125 2963.976562 662.785156 C 2963.683594 662.042969 2963.421875 661.285156 2963.199219 660.515625 C 2962.976562 659.75 2962.792969 658.96875 2962.644531 658.183594 C 2962.5 657.398438 2962.390625 656.605469 2962.324219 655.808594 C 2962.253906 655.011719 2962.222656 654.210938 2962.230469 653.410156 C 2962.242188 652.609375 2962.289062 651.8125 2962.375 651.015625 C 2962.460938 650.21875 2962.585938 649.429688 2962.75 648.648438 C 2965.375 632.503906 2979.140625 621.398438 2989.21875 609.765625 C 2999.6875 597.800781 3008.988281 584.988281 3017.125 571.332031 C 3021.214844 564.492188 3025.003906 557.488281 3028.488281 550.320312 C 3031.972656 543.152344 3035.144531 535.847656 3037.996094 528.40625 C 3040.851562 520.964844 3043.378906 513.410156 3045.578125 505.75 C 3047.78125 498.089844 3049.648438 490.351562 3051.179688 482.527344 C 3052.710938 474.707031 3053.902344 466.835938 3054.753906 458.910156 C 3055.605469 450.984375 3056.113281 443.039062 3056.277344 435.070312 C 3056.441406 427.101562 3056.261719 419.140625 3055.738281 411.1875 C 3055.214844 403.234375 3054.347656 395.320312 3053.140625 387.441406 C 3048.140625 356.917969 3034.046875 321.882812 3054.285156 293.816406 C 3055.3125 292.382812 3056.40625 291 3057.566406 289.675781 C 3058.726562 288.347656 3059.945312 287.078125 3061.230469 285.871094 C 3062.515625 284.660156 3063.855469 283.519531 3065.25 282.441406 C 3066.644531 281.363281 3068.089844 280.355469 3069.585938 279.417969 C 3071.078125 278.484375 3072.613281 277.621094 3074.191406 276.835938 C 3075.769531 276.046875 3077.382812 275.339844 3079.027344 274.710938 C 3080.675781 274.082031 3082.347656 273.53125 3084.050781 273.066406 C 3085.75 272.601562 3087.46875 272.21875 3089.207031 271.917969 C 3090.945312 271.621094 3092.691406 271.40625 3094.449219 271.28125 C 3096.210938 271.152344 3097.96875 271.109375 3099.734375 271.152344 C 3101.496094 271.199219 3103.25 271.328125 3105 271.542969 C 3106.75 271.757812 3108.488281 272.058594 3110.207031 272.441406 C 3111.929688 272.828125 3113.625 273.292969 3115.300781 273.84375 C 3116.976562 274.394531 3118.621094 275.023438 3120.234375 275.734375 C 3121.847656 276.445312 3123.421875 277.234375 3124.960938 278.097656 C 3126.496094 278.964844 3127.988281 279.898438 3129.433594 280.910156 L 3131.5625 281.113281 C 3128.367188 279.230469 3125.171875 277.386719 3121.933594 275.582031 C 3101.445312 263.945312 3077.3125 253.910156 3053.304688 260.421875 C 3048.4375 261.632812 3043.875 263.550781 3039.609375 266.179688 C 3035.339844 268.8125 3031.574219 272.027344 3028.308594 275.828125 C 3020.113281 285.910156 3019.050781 299.019531 3019.378906 311.476562 C 3020.03125 338.394531 3021.710938 365.234375 3021.425781 392.152344 C 3021.324219 418.644531 3019.316406 444.992188 3015.402344 471.191406 C 3007.988281 518.515625 2991.925781 565.429688 2963.203125 604.152344 C 2960.078125 608.464844 2956.785156 612.644531 2953.316406 616.6875 C 2949.851562 620.730469 2946.226562 624.625 2942.4375 628.367188 C 2938.652344 632.113281 2934.71875 635.699219 2930.636719 639.121094 C 2926.554688 642.539062 2922.339844 645.789062 2917.992188 648.863281 C 2913.644531 651.941406 2909.175781 654.832031 2904.589844 657.539062 C 2900.003906 660.246094 2895.316406 662.761719 2890.523438 665.085938 C 2885.730469 667.40625 2880.847656 669.527344 2875.882812 671.449219 C 2870.914062 673.371094 2865.875 675.085938 2860.769531 676.589844 C 2850.675781 679.488281 2840.386719 681.28125 2829.910156 681.972656 C 2819.429688 682.664062 2809 682.234375 2798.613281 680.6875 C 2787.753906 678.925781 2776.691406 674.828125 2769.929688 665.773438 C 2769.183594 664.878906 2768.503906 663.9375 2767.894531 662.945312 C 2767.28125 661.953125 2766.742188 660.925781 2766.277344 659.855469 C 2765.808594 658.789062 2765.421875 657.695312 2765.113281 656.570312 C 2764.800781 655.449219 2764.574219 654.308594 2764.425781 653.152344 C 2764.277344 651.996094 2764.210938 650.835938 2764.230469 649.671875 C 2764.246094 648.507812 2764.34375 647.351562 2764.527344 646.199219 C 2764.707031 645.046875 2764.96875 643.917969 2765.3125 642.800781 C 2765.65625 641.6875 2766.074219 640.605469 2766.570312 639.550781 C 2767.785156 637.480469 2769.210938 635.5625 2770.84375 633.796875 C 2772.476562 632.035156 2774.277344 630.46875 2776.253906 629.101562 C 2778.226562 627.730469 2780.324219 626.589844 2782.546875 625.679688 C 2784.769531 624.769531 2787.066406 624.105469 2789.433594 623.695312 C 2801.726562 621.074219 2814.425781 623.695312 2826.800781 624.433594 C 2832.003906 624.648438 2837.199219 624.542969 2842.386719 624.113281 C 2847.578125 623.679688 2852.71875 622.929688 2857.8125 621.859375 C 2862.910156 620.789062 2867.917969 619.40625 2872.839844 617.710938 C 2877.765625 616.015625 2882.5625 614.023438 2887.238281 611.730469 C 2929.605469 591.53125 2958.410156 552.277344 2974.347656 509.050781 C 2992.664062 459.515625 2995.078125 406.207031 2996.351562 353.925781 C 2996.921875 330.285156 2995.695312 305.25 3002.78125 282.386719 C 3003.445312 279.988281 3004.253906 277.636719 3005.207031 275.339844 C 3006.15625 273.039062 3007.246094 270.808594 3008.46875 268.640625 C 3009.691406 266.476562 3011.042969 264.390625 3012.523438 262.390625 C 3014 260.390625 3015.597656 258.484375 3017.308594 256.679688 C 3019.019531 254.875 3020.835938 253.179688 3022.753906 251.59375 C 3024.671875 250.011719 3026.683594 248.550781 3028.78125 247.210938 C 3030.878906 245.871094 3033.046875 244.667969 3035.292969 243.59375 C 3037.539062 242.519531 3039.839844 241.589844 3042.199219 240.796875 C 3046.976562 239.386719 3051.835938 238.394531 3056.78125 237.820312 C 3061.730469 237.25 3066.6875 237.105469 3071.660156 237.386719 C 3076.632812 237.671875 3081.542969 238.375 3086.394531 239.507812 C 3091.242188 240.636719 3095.960938 242.171875 3100.546875 244.117188 C 3122.546875 252.882812 3141.191406 267.960938 3159.21875 283 C 3159.277344 282.890625 3159.351562 282.789062 3159.433594 282.699219 C 3159.515625 282.609375 3159.609375 282.527344 3159.714844 282.460938 C 3159.816406 282.390625 3159.925781 282.335938 3160.042969 282.292969 C 3160.160156 282.253906 3160.28125 282.226562 3160.402344 282.214844 C 3160.527344 282.203125 3160.652344 282.203125 3160.773438 282.222656 C 3160.894531 282.242188 3161.015625 282.273438 3161.128906 282.320312 C 3161.242188 282.367188 3161.351562 282.425781 3161.449219 282.5 C 3161.550781 282.574219 3161.640625 282.660156 3161.71875 282.753906 C 3162.257812 283.394531 3162.675781 284.109375 3162.972656 284.890625 C 3163.265625 285.671875 3163.425781 286.484375 3163.449219 287.320312 C 3163.472656 288.15625 3163.355469 288.976562 3163.101562 289.773438 C 3162.847656 290.570312 3162.46875 291.304688 3161.964844 291.972656 Z M 3161.964844 291.972656 " fill-opacity="1" fill-rule="nonzero"/><path fill="#5d9324" d="M 3202.363281 266.035156 L 3197.816406 277.632812 C 3197.710938 277.894531 3197.546875 278.113281 3197.324219 278.289062 C 3196.792969 280.171875 3193.882812 280.214844 3193.84375 278.289062 L 3193.472656 279.394531 C 3193.417969 279.621094 3193.324219 279.832031 3193.1875 280.019531 C 3193.046875 280.210938 3192.878906 280.367188 3192.679688 280.492188 C 3192.480469 280.613281 3192.265625 280.695312 3192.03125 280.730469 C 3191.800781 280.769531 3191.570312 280.757812 3191.34375 280.707031 C 3191.113281 280.652344 3190.90625 280.554688 3190.714844 280.417969 C 3190.527344 280.28125 3190.371094 280.109375 3190.246094 279.910156 C 3190.125 279.710938 3190.042969 279.496094 3190.007812 279.265625 C 3189.96875 279.03125 3189.976562 278.804688 3190.03125 278.574219 L 3190.441406 276.445312 C 3190.441406 276.445312 3190.441406 276.445312 3190.441406 276.15625 L 3156.761719 260.011719 L 3116.445312 240.714844 C 3104.152344 234.816406 3091.859375 228.421875 3079.117188 223.21875 C 3057.113281 213.960938 3030.972656 208.101562 3010.445312 223.914062 C 2989.917969 239.730469 2983.894531 267.757812 2982.871094 292.710938 C 2982.296875 307.09375 2982.664062 321.390625 2982.253906 335.898438 C 2981.84375 350.402344 2981.027344 364.90625 2979.796875 379.246094 C 2977.628906 407.90625 2973.53125 436.289062 2967.503906 464.390625 C 2961.851562 489.628906 2953.203125 514.707031 2938.289062 536.050781 C 2935.183594 540.359375 2931.871094 544.503906 2928.359375 548.484375 C 2924.84375 552.46875 2921.140625 556.265625 2917.253906 559.882812 C 2913.363281 563.503906 2909.308594 566.917969 2905.082031 570.136719 C 2900.859375 573.355469 2896.484375 576.359375 2891.964844 579.148438 C 2887.445312 581.933594 2882.796875 584.496094 2878.027344 586.824219 C 2873.253906 589.15625 2868.378906 591.246094 2863.398438 593.097656 C 2858.421875 594.949219 2853.367188 596.550781 2848.230469 597.90625 C 2843.09375 599.257812 2837.90625 600.355469 2832.660156 601.199219 C 2822.140625 602.996094 2811.550781 603.667969 2800.886719 603.21875 C 2790.226562 602.769531 2779.730469 601.210938 2769.398438 598.535156 C 2763.558594 597.328125 2757.976562 595.375 2752.65625 592.6875 C 2747.332031 590 2742.449219 586.664062 2738.011719 582.679688 C 2736.175781 580.898438 2734.570312 578.929688 2733.195312 576.773438 C 2731.824219 574.617188 2730.714844 572.332031 2729.875 569.917969 C 2729.035156 567.5 2728.488281 565.023438 2728.226562 562.476562 C 2727.96875 559.933594 2728.007812 557.394531 2728.34375 554.859375 C 2728.609375 553.628906 2728.964844 552.425781 2729.40625 551.246094 C 2729.847656 550.066406 2730.375 548.925781 2730.984375 547.824219 C 2731.589844 546.722656 2732.277344 545.671875 2733.039062 544.667969 C 2733.804688 543.667969 2734.632812 542.726562 2735.535156 541.84375 C 2736.433594 540.964844 2737.394531 540.15625 2738.414062 539.414062 C 2739.429688 538.675781 2740.5 538.011719 2741.613281 537.429688 C 2742.730469 536.84375 2743.878906 536.34375 2745.070312 535.929688 C 2746.257812 535.511719 2747.46875 535.183594 2748.707031 534.945312 C 2761.613281 531.585938 2774.683594 535.4375 2787.589844 536.625 C 2793.046875 537.039062 2798.507812 537.054688 2803.964844 536.664062 C 2809.425781 536.277344 2814.828125 535.492188 2820.171875 534.308594 C 2825.515625 533.125 2830.746094 531.554688 2835.859375 529.601562 C 2840.972656 527.648438 2845.917969 525.332031 2850.6875 522.652344 C 2860.378906 517.273438 2869.371094 510.90625 2877.664062 503.550781 C 2885.957031 496.199219 2893.355469 488.035156 2899.855469 479.058594 C 2907.554688 468.082031 2914.160156 456.480469 2919.667969 444.257812 C 2925.179688 432.035156 2929.503906 419.40625 2932.636719 406.371094 C 2939.214844 379.265625 2943.464844 351.800781 2945.378906 323.972656 C 2947.714844 296.847656 2950.132812 269.191406 2961.316406 243.992188 C 2963.515625 238.71875 2966.183594 233.691406 2969.316406 228.914062 C 2972.449219 224.132812 2975.996094 219.683594 2979.953125 215.5625 C 2983.914062 211.445312 2988.21875 207.722656 2992.867188 204.402344 C 2997.519531 201.082031 3002.433594 198.214844 3007.617188 195.808594 C 3012.480469 193.765625 3017.464844 192.066406 3022.5625 190.714844 C 3027.664062 189.363281 3032.832031 188.371094 3038.070312 187.738281 C 3043.308594 187.105469 3048.566406 186.835938 3053.839844 186.929688 C 3059.113281 187.027344 3064.359375 187.488281 3069.570312 188.308594 C 3120.5 195.316406 3160.859375 231.128906 3197.777344 264.070312 L 3197.980469 263.660156 C 3198.039062 263.53125 3198.113281 263.414062 3198.199219 263.304688 C 3198.289062 263.199219 3198.386719 263.101562 3198.5 263.015625 C 3198.613281 262.933594 3198.734375 262.863281 3198.863281 262.8125 C 3198.992188 262.757812 3199.125 262.71875 3199.261719 262.699219 C 3199.402344 262.679688 3199.539062 262.675781 3199.679688 262.691406 C 3199.816406 262.703125 3199.953125 262.734375 3200.085938 262.785156 C 3200.214844 262.832031 3200.339844 262.894531 3200.453125 262.976562 C 3200.570312 263.054688 3200.675781 263.144531 3200.765625 263.25 C 3201.074219 263.304688 3201.351562 263.421875 3201.605469 263.597656 C 3201.859375 263.777344 3202.066406 264 3202.21875 264.269531 C 3202.375 264.539062 3202.464844 264.828125 3202.488281 265.136719 C 3202.515625 265.445312 3202.472656 265.746094 3202.363281 266.035156 Z M 3202.363281 266.035156 " fill-opacity="1" fill-rule="nonzero"/><path fill="#ee8cb6" d="M 687.972656 159.105469 C 686.070312 165.523438 683.652344 171.742188 680.722656 177.757812 C 677.789062 183.777344 674.382812 189.511719 670.5 194.964844 C 666.621094 200.417969 662.316406 205.515625 657.589844 210.257812 C 652.863281 214.996094 647.78125 219.316406 642.339844 223.214844 C 622.167969 237.296875 589.6875 245.570312 570.28125 225.554688 C 559.871094 214.785156 558.175781 199.050781 561.363281 184.96875 C 564.550781 170.886719 573.023438 157.976562 581.980469 146.234375 C 590.9375 134.496094 600.582031 122.511719 604.574219 107.90625 C 605.441406 104.417969 606.054688 100.882812 606.414062 97.308594 C 606.773438 93.730469 606.878906 90.148438 606.730469 86.554688 C 606.578125 82.964844 606.175781 79.402344 605.515625 75.867188 C 604.859375 72.335938 603.953125 68.867188 602.800781 65.460938 C 594.003906 37.664062 570.96875 17.289062 545.832031 4.09375 C 516.78125 -11.15625 483.738281 -17.085938 451.742188 -22.734375 L 448.554688 -22.132812 C 440.730469 -20.597656 438.226562 -33.265625 445.773438 -34.71875 L 446.820312 -34.71875 C 447.3125 -35.15625 447.871094 -35.46875 448.496094 -35.65625 C 449.125 -35.847656 449.761719 -35.898438 450.410156 -35.808594 L 451.542969 -35.808594 C 457.511719 -36.816406 463.644531 -37.703125 469.535156 -38.390625 C 485.8125 -40.421875 502.132812 -40.875 518.5 -39.75 C 534.863281 -38.625 550.96875 -35.9375 566.8125 -31.691406 C 573.960938 -29.707031 580.964844 -27.304688 587.828125 -24.492188 C 594.695312 -21.679688 601.367188 -18.46875 607.855469 -14.871094 C 614.339844 -11.269531 620.59375 -7.296875 626.609375 -2.957031 C 632.625 1.378906 638.367188 6.058594 643.832031 11.074219 C 648.957031 15.742188 653.757812 20.726562 658.230469 26.023438 C 662.703125 31.320312 666.8125 36.886719 670.558594 42.71875 C 674.304688 48.550781 677.65625 54.605469 680.609375 60.875 C 683.566406 67.148438 686.101562 73.585938 688.214844 80.1875 C 690.171875 86.585938 691.636719 93.089844 692.617188 99.707031 C 693.59375 106.324219 694.074219 112.976562 694.054688 119.664062 C 694.035156 126.355469 693.515625 133.003906 692.496094 139.613281 C 691.476562 146.222656 689.96875 152.722656 687.972656 159.105469 Z M 687.972656 159.105469 " fill-opacity="1" fill-rule="nonzero"/><path fill="#ee8cb6" d="M 242.707031 260.578125 C 242.988281 264.113281 242.992188 267.652344 242.71875 271.191406 C 242.449219 274.730469 241.898438 278.222656 241.078125 281.675781 C 240.253906 285.128906 239.167969 288.496094 237.820312 291.777344 C 236.46875 295.058594 234.871094 298.214844 233.023438 301.246094 C 232.097656 302.820312 231.074219 304.324219 229.953125 305.761719 C 228.832031 307.199219 227.621094 308.558594 226.320312 309.839844 C 225.019531 311.121094 223.644531 312.308594 222.1875 313.410156 C 220.730469 314.507812 219.210938 315.507812 217.625 316.410156 C 216.039062 317.308594 214.398438 318.101562 212.710938 318.789062 C 211.019531 319.476562 209.292969 320.050781 207.527344 320.511719 C 205.761719 320.96875 203.972656 321.3125 202.164062 321.539062 C 200.355469 321.765625 198.535156 321.875 196.710938 321.863281 C 179.726562 321.460938 164.960938 311.210938 154.46875 298.503906 C 144.421875 285.964844 136.351562 272.261719 130.261719 257.390625 C 124.242188 242.9375 119.898438 227.992188 117.230469 212.566406 C 106.09375 150.835938 122.3125 85.796875 163.789062 38.429688 C 168.664062 32.890625 173.8125 27.617188 179.238281 22.613281 C 184.664062 17.613281 190.335938 12.90625 196.25 8.496094 C 202.167969 4.085938 208.296875 -0.0078125 214.640625 -3.777344 C 220.980469 -7.550781 227.503906 -10.980469 234.203125 -14.070312 C 240.90625 -17.160156 247.75 -19.894531 254.734375 -22.273438 C 261.722656 -24.648438 268.8125 -26.65625 276.007812 -28.292969 C 283.203125 -29.925781 290.464844 -31.183594 297.792969 -32.0625 C 305.117188 -32.941406 312.472656 -33.4375 319.851562 -33.550781 C 320.226562 -33.554688 320.601562 -33.523438 320.972656 -33.453125 C 321.34375 -33.382812 321.703125 -33.273438 322.054688 -33.132812 C 322.402344 -32.988281 322.734375 -32.808594 323.046875 -32.597656 C 323.359375 -32.386719 323.648438 -32.148438 323.914062 -31.878906 C 324.175781 -31.605469 324.410156 -31.3125 324.617188 -30.996094 C 324.820312 -30.679688 324.992188 -30.34375 325.128906 -29.992188 C 325.261719 -29.640625 325.363281 -29.277344 325.425781 -28.90625 C 325.488281 -28.53125 325.511719 -28.15625 325.5 -27.78125 C 327.542969 -25.777344 329.253906 -23.523438 330.628906 -21.015625 C 332 -18.507812 332.980469 -15.851562 333.566406 -13.054688 C 333.867188 -11.277344 334.058594 -9.488281 334.140625 -7.6875 C 334.226562 -5.886719 334.199219 -4.085938 334.0625 -2.289062 C 333.925781 -0.492188 333.679688 1.289062 333.324219 3.054688 C 332.972656 4.824219 332.511719 6.5625 331.945312 8.273438 C 331.378906 9.984375 330.710938 11.65625 329.941406 13.285156 C 329.171875 14.914062 328.308594 16.492188 327.347656 18.015625 C 326.386719 19.542969 325.335938 21.003906 324.195312 22.398438 C 323.054688 23.796875 321.835938 25.117188 320.535156 26.367188 C 309.683594 37.621094 295.320312 44.519531 283.335938 54.609375 C 277.949219 59.101562 272.886719 63.941406 268.15625 69.121094 C 263.425781 74.304688 259.070312 79.785156 255.082031 85.558594 C 251.097656 91.332031 247.523438 97.351562 244.355469 103.613281 C 241.1875 109.875 238.460938 116.324219 236.171875 122.957031 C 233.773438 129.722656 231.867188 136.625 230.445312 143.664062 C 229.027344 150.699219 228.109375 157.804688 227.699219 164.972656 C 227.285156 172.140625 227.378906 179.300781 227.980469 186.453125 C 228.582031 193.609375 229.683594 200.683594 231.289062 207.683594 C 235.40625 225.316406 241.457031 242.339844 242.707031 260.578125 Z M 242.707031 260.578125 " fill-opacity="1" fill-rule="nonzero"/><path fill="#ee8cb6" d="M 120.214844 29.554688 C 111.800781 38.070312 104.203125 47.261719 97.425781 57.128906 C 90.648438 66.996094 84.796875 77.386719 79.867188 88.296875 C 69.257812 111.980469 66.394531 140.75 48.074219 160.277344 C 32.339844 177.179688 1.3125 185.046875 -14.503906 163.746094 C -29.46875 143.574219 -22.570312 114.199219 -14.097656 92.734375 C 4.257812 45.933594 44.039062 9.824219 88.703125 -11.679688 C 143.414062 -37.988281 204.660156 -44.765625 264.453125 -49.445312 C 267.925781 -49.726562 270.386719 -45.773438 270.265625 -42.75 C 270.242188 -41.683594 269.964844 -40.6875 269.4375 -39.765625 C 268.90625 -38.839844 268.1875 -38.101562 267.277344 -37.542969 C 267.085938 -36.957031 266.804688 -36.417969 266.441406 -35.917969 C 266.074219 -35.421875 265.644531 -34.992188 265.144531 -34.628906 C 264.644531 -34.265625 264.101562 -33.992188 263.515625 -33.800781 C 262.929688 -33.609375 262.328125 -33.511719 261.710938 -33.507812 C 255.980469 -33.507812 250.253906 -33.066406 244.605469 -32.378906 C 238.746094 -31.644531 232.929688 -30.664062 227.152344 -29.4375 C 221.375 -28.210938 215.664062 -26.746094 210.011719 -25.039062 C 204.359375 -23.332031 198.789062 -21.386719 193.300781 -19.210938 C 187.8125 -17.03125 182.425781 -14.628906 177.140625 -11.996094 C 171.855469 -9.367188 166.6875 -6.515625 161.644531 -3.449219 C 156.597656 -0.382812 151.691406 2.890625 146.921875 6.375 C 142.152344 9.855469 137.539062 13.53125 133.082031 17.398438 C 128.621094 21.269531 124.332031 25.320312 120.214844 29.554688 Z M 120.214844 29.554688 " fill-opacity="1" fill-rule="nonzero"/><path fill="#ee8cb6" d="M 380.613281 161.605469 C 369.40625 168.28125 359.320312 176.347656 350.351562 185.816406 C 330.664062 208.773438 335.382812 241.855469 340.589844 269.089844 C 343.171875 282.6875 347.40625 297.332031 344.300781 311.132812 C 344.132812 311.929688 343.929688 312.714844 343.6875 313.492188 C 343.445312 314.269531 343.164062 315.035156 342.847656 315.785156 C 342.53125 316.535156 342.175781 317.265625 341.789062 317.980469 C 341.398438 318.695312 340.976562 319.390625 340.519531 320.066406 C 340.058594 320.738281 339.570312 321.386719 339.050781 322.015625 C 338.53125 322.640625 337.980469 323.238281 337.398438 323.8125 C 336.820312 324.382812 336.214844 324.925781 335.582031 325.4375 C 334.949219 325.949219 334.292969 326.429688 333.613281 326.878906 C 332.933594 327.328125 332.230469 327.742188 331.511719 328.121094 C 330.792969 328.5 330.054688 328.84375 329.300781 329.152344 C 328.546875 329.457031 327.777344 329.726562 327 329.960938 C 326.21875 330.191406 325.429688 330.386719 324.628906 330.542969 C 323.828125 330.695312 323.023438 330.8125 322.214844 330.886719 C 321.402344 330.964844 320.589844 331 319.777344 330.996094 C 318.960938 330.992188 318.148438 330.949219 317.339844 330.867188 C 316.53125 330.78125 315.726562 330.660156 314.929688 330.5 C 300.6875 327.875 291.40625 316.253906 286.242188 303.425781 C 280.769531 288.882812 276.574219 273.980469 273.652344 258.722656 C 266.695312 227.371094 263.683594 195.644531 264.617188 163.542969 C 264.773438 149.671875 267.234375 136.226562 272 123.199219 C 274.476562 116.863281 277.773438 110.992188 281.882812 105.574219 C 285.996094 100.160156 290.773438 95.410156 296.207031 91.324219 C 315.773438 76.476562 342.523438 69.941406 357.414062 49.28125 C 359.136719 46.921875 360.695312 44.457031 362.097656 41.890625 C 363.5 39.328125 364.726562 36.679688 365.785156 33.957031 C 366.839844 31.230469 367.714844 28.445312 368.410156 25.609375 C 369.101562 22.769531 369.609375 19.894531 369.929688 16.988281 C 370.246094 14.082031 370.375 11.167969 370.316406 8.246094 C 370.253906 5.324219 370.003906 2.417969 369.5625 -0.472656 C 369.125 -3.359375 368.496094 -6.210938 367.6875 -9.019531 C 366.875 -11.828125 365.882812 -14.570312 364.714844 -17.25 C 364.535156 -17.625 364.386719 -18.011719 364.277344 -18.414062 C 364.164062 -18.816406 364.089844 -19.226562 364.054688 -19.640625 C 364.015625 -20.054688 364.019531 -20.472656 364.054688 -20.886719 C 364.09375 -21.300781 364.171875 -21.710938 364.28125 -22.113281 C 364.394531 -22.515625 364.542969 -22.902344 364.726562 -23.277344 C 364.90625 -23.652344 365.121094 -24.007812 365.371094 -24.34375 C 365.617188 -24.679688 365.894531 -24.988281 366.195312 -25.277344 C 366.5 -25.5625 366.828125 -25.816406 367.175781 -26.042969 C 368.132812 -26.570312 369.152344 -26.808594 370.242188 -26.769531 C 370.484375 -27.128906 370.765625 -27.453125 371.082031 -27.746094 C 371.402344 -28.039062 371.75 -28.292969 372.125 -28.507812 C 372.5 -28.71875 372.898438 -28.886719 373.3125 -29.007812 C 373.726562 -29.128906 374.148438 -29.199219 374.582031 -29.222656 C 375.011719 -29.246094 375.441406 -29.222656 375.867188 -29.144531 C 376.292969 -29.070312 376.703125 -28.945312 377.101562 -28.777344 C 377.5 -28.605469 377.871094 -28.390625 378.21875 -28.132812 C 378.566406 -27.878906 378.878906 -27.585938 379.160156 -27.253906 L 395.824219 -8.695312 C 406.429688 2.089844 416.003906 13.722656 424.550781 26.203125 C 428.304688 31.976562 431.289062 38.125 433.496094 44.648438 C 435.699219 51.171875 437.0625 57.867188 437.582031 64.734375 C 439.476562 91.042969 427.898438 117.1875 410.914062 136.550781 C 401.933594 146.257812 391.832031 154.609375 380.613281 161.605469 Z M 380.613281 161.605469 " fill-opacity="1" fill-rule="nonzero"/><path fill="#ee8cb6" d="M 514.117188 32.378906 C 516.453125 35.132812 518.648438 37.996094 520.703125 40.964844 C 522.757812 43.9375 524.660156 47 526.417969 50.15625 C 528.175781 53.308594 529.773438 56.542969 531.210938 59.855469 C 532.652344 63.167969 533.929688 66.542969 535.039062 69.976562 C 536.152344 73.414062 537.09375 76.894531 537.867188 80.421875 C 538.636719 83.953125 539.234375 87.507812 539.660156 91.09375 C 540.085938 94.679688 540.335938 98.28125 540.410156 101.890625 C 540.480469 105.5 540.378906 109.105469 540.101562 112.707031 C 539.453125 120.03125 538.109375 127.226562 536.074219 134.289062 C 534.039062 141.355469 531.347656 148.160156 528 154.707031 C 524.621094 161.101562 520.6875 167.132812 516.199219 172.804688 C 511.707031 178.472656 506.738281 183.683594 501.289062 188.4375 C 491.847656 196.910156 481.117188 204.980469 474.820312 216.15625 C 467.839844 228.261719 469.980469 242.140625 471.753906 255.414062 C 473.730469 269.734375 475.226562 284.945312 467.71875 298.058594 C 466.878906 299.464844 465.957031 300.820312 464.964844 302.125 C 463.96875 303.425781 462.902344 304.667969 461.765625 305.851562 C 460.628906 307.03125 459.429688 308.144531 458.167969 309.191406 C 456.902344 310.238281 455.585938 311.210938 454.214844 312.105469 C 452.84375 313.003906 451.421875 313.820312 449.957031 314.554688 C 448.492188 315.292969 446.992188 315.945312 445.453125 316.511719 C 443.914062 317.078125 442.347656 317.554688 440.757812 317.945312 C 439.164062 318.332031 437.554688 318.632812 435.925781 318.839844 C 405.789062 322.871094 381.621094 297.9375 375.40625 270.179688 C 368.628906 239.476562 379.078125 206.109375 398.324219 181.902344 C 414.464844 161.445312 437.5 147.726562 454.246094 127.796875 C 458.351562 123.128906 461.730469 117.984375 464.378906 112.359375 C 467.023438 106.734375 468.839844 100.851562 469.820312 94.710938 C 470.667969 87.480469 470.542969 80.269531 469.441406 73.070312 C 468.335938 65.875 466.296875 58.953125 463.324219 52.308594 C 451.21875 24.066406 427.011719 3.125 404.175781 -16.644531 C 403.84375 -16.898438 403.539062 -17.179688 403.261719 -17.488281 C 402.980469 -17.796875 402.730469 -18.125 402.511719 -18.480469 C 402.289062 -18.832031 402.101562 -19.203125 401.945312 -19.589844 C 401.792969 -19.972656 401.671875 -20.371094 401.585938 -20.777344 C 401.503906 -21.1875 401.457031 -21.597656 401.445312 -22.015625 C 401.433594 -22.429688 401.457031 -22.84375 401.519531 -23.253906 C 401.582031 -23.667969 401.679688 -24.070312 401.816406 -24.464844 C 401.949219 -24.859375 402.117188 -25.238281 402.320312 -25.601562 C 402.519531 -25.949219 402.753906 -26.273438 403.019531 -26.574219 C 403.285156 -26.875 403.582031 -27.144531 403.902344 -27.386719 C 404.226562 -27.625 404.566406 -27.832031 404.929688 -28.003906 C 405.292969 -28.171875 405.671875 -28.304688 406.0625 -28.398438 C 406.453125 -28.496094 406.847656 -28.546875 407.25 -28.5625 C 407.652344 -28.574219 408.050781 -28.550781 408.445312 -28.480469 C 408.84375 -28.414062 409.226562 -28.308594 409.601562 -28.164062 C 409.976562 -28.019531 410.332031 -27.835938 410.671875 -27.617188 L 411.074219 -27.253906 L 432.980469 -17.128906 C 461.789062 -3.933594 493.21875 7.441406 514.117188 32.378906 Z M 514.117188 32.378906 " fill-opacity="1" fill-rule="nonzero"/><path fill="#f75d0f" d="M 1886.492188 1751.25 L 1890.625 1748.886719 C 1889.898438 1748.011719 1889.363281 1747.03125 1889.019531 1745.945312 C 1888.675781 1744.859375 1888.546875 1743.75 1888.632812 1742.617188 C 1890.160156 1722.347656 1893.230469 1702.3125 1897.84375 1682.515625 C 1902.457031 1662.71875 1908.5625 1643.394531 1916.160156 1624.539062 C 1922.128906 1608.425781 1929.65625 1593.074219 1938.742188 1578.492188 C 1947.007812 1566.167969 1958.519531 1554.359375 1974.015625 1552.589844 C 1975.925781 1552.453125 1977.832031 1552.457031 1979.742188 1552.601562 C 1981.652344 1552.746094 1983.539062 1553.027344 1985.40625 1553.449219 C 1987.273438 1553.867188 1989.097656 1554.421875 1990.886719 1555.109375 C 1992.671875 1555.796875 1994.398438 1556.609375 1996.066406 1557.546875 C 1997.730469 1558.488281 1999.324219 1559.542969 2000.835938 1560.714844 C 2002.347656 1561.886719 2003.765625 1563.164062 2005.09375 1564.542969 C 2006.417969 1565.921875 2007.636719 1567.390625 2008.75 1568.949219 C 2009.859375 1570.507812 2010.851562 1572.140625 2011.726562 1573.84375 C 2020.878906 1589.339844 2019.476562 1608.453125 2014.382812 1625.058594 C 2009.289062 1640.410156 2002.71875 1655.105469 1994.683594 1669.140625 C 1986.644531 1683.179688 1977.296875 1696.28125 1966.636719 1708.449219 C 1957.828125 1718.832031 1948.269531 1728.472656 1937.964844 1737.367188 C 1927.65625 1746.265625 1916.722656 1754.3125 1905.164062 1761.507812 C 1905.027344 1762.285156 1904.773438 1763.023438 1904.402344 1763.71875 C 1904.03125 1764.414062 1903.558594 1765.035156 1902.988281 1765.578125 C 1902.414062 1766.121094 1901.773438 1766.5625 1901.0625 1766.902344 C 1900.347656 1767.242188 1899.601562 1767.460938 1898.816406 1767.558594 L 1892.542969 1768.59375 C 1892.003906 1768.691406 1891.460938 1768.738281 1890.910156 1768.738281 C 1890.359375 1768.742188 1889.816406 1768.695312 1889.273438 1768.597656 C 1888.734375 1768.503906 1888.207031 1768.359375 1887.691406 1768.171875 C 1887.175781 1767.984375 1886.679688 1767.75 1886.207031 1767.472656 C 1885.730469 1767.195312 1885.285156 1766.878906 1884.867188 1766.523438 C 1884.449219 1766.167969 1884.066406 1765.777344 1883.714844 1765.355469 C 1883.367188 1764.929688 1883.058594 1764.480469 1882.789062 1764 C 1882.519531 1763.523438 1882.292969 1763.023438 1882.113281 1762.503906 C 1881.933594 1761.988281 1881.796875 1761.457031 1881.710938 1760.914062 C 1881.625 1760.371094 1881.585938 1759.828125 1881.59375 1759.277344 C 1881.605469 1758.726562 1881.664062 1758.183594 1881.769531 1757.644531 C 1881.875 1757.105469 1882.027344 1756.582031 1882.226562 1756.070312 C 1882.425781 1755.558594 1882.667969 1755.066406 1882.953125 1754.597656 C 1883.242188 1754.128906 1883.566406 1753.691406 1883.929688 1753.277344 C 1884.292969 1752.867188 1884.691406 1752.492188 1885.121094 1752.152344 C 1885.550781 1751.808594 1886.007812 1751.507812 1886.492188 1751.25 Z M 1886.492188 1751.25 " fill-opacity="1" fill-rule="nonzero"/><path fill="#f75d0f" d="M 1747.460938 1618.933594 C 1741.480469 1601.074219 1735.355469 1581.296875 1737.867188 1562.328125 C 1738.027344 1560.234375 1738.320312 1558.15625 1738.746094 1556.097656 C 1739.171875 1554.039062 1739.726562 1552.015625 1740.410156 1550.027344 C 1741.09375 1548.039062 1741.902344 1546.105469 1742.832031 1544.21875 C 1743.761719 1542.332031 1744.804688 1540.515625 1745.964844 1538.761719 C 1747.125 1537.007812 1748.394531 1535.335938 1749.765625 1533.746094 C 1751.140625 1532.15625 1752.609375 1530.65625 1754.171875 1529.253906 C 1755.738281 1527.847656 1757.382812 1526.546875 1759.113281 1525.351562 C 1760.84375 1524.15625 1762.640625 1523.078125 1764.507812 1522.109375 C 1766.398438 1521.371094 1768.328125 1520.753906 1770.300781 1520.265625 C 1772.273438 1519.773438 1774.265625 1519.414062 1776.285156 1519.183594 C 1778.304688 1518.953125 1780.328125 1518.851562 1782.359375 1518.882812 C 1784.390625 1518.914062 1786.410156 1519.078125 1788.421875 1519.371094 C 1790.429688 1519.664062 1792.414062 1520.085938 1794.367188 1520.636719 C 1796.324219 1521.183594 1798.234375 1521.859375 1800.105469 1522.65625 C 1801.972656 1523.453125 1803.78125 1524.371094 1805.53125 1525.402344 C 1807.277344 1526.433594 1808.953125 1527.574219 1810.554688 1528.824219 C 1813.960938 1531.671875 1817.125 1534.765625 1820.046875 1538.109375 C 1822.964844 1541.453125 1825.605469 1545.003906 1827.96875 1548.765625 C 1830.332031 1552.523438 1832.382812 1556.445312 1834.128906 1560.523438 C 1835.875 1564.605469 1837.289062 1568.800781 1838.378906 1573.105469 C 1843.855469 1591.300781 1847.816406 1609.824219 1850.257812 1628.671875 C 1853.007812 1647.925781 1854.449219 1667.277344 1854.585938 1686.722656 C 1854.71875 1706.171875 1853.550781 1725.539062 1851.070312 1744.828125 C 1851.621094 1745.5625 1852.050781 1746.359375 1852.359375 1747.222656 C 1852.667969 1748.085938 1852.84375 1748.972656 1852.882812 1749.890625 C 1852.921875 1750.804688 1852.824219 1751.707031 1852.589844 1752.59375 C 1852.359375 1753.476562 1852 1754.308594 1851.511719 1755.085938 C 1851.234375 1755.585938 1850.90625 1756.054688 1850.527344 1756.488281 C 1850.152344 1756.921875 1849.734375 1757.308594 1849.277344 1757.65625 C 1848.820312 1758.003906 1848.332031 1758.300781 1847.8125 1758.546875 C 1847.296875 1758.792969 1846.757812 1758.984375 1846.199219 1759.117188 C 1845.644531 1759.253906 1845.078125 1759.328125 1844.503906 1759.347656 C 1843.929688 1759.367188 1843.359375 1759.324219 1842.796875 1759.226562 C 1842.230469 1759.128906 1841.683594 1758.972656 1841.148438 1758.757812 C 1840.617188 1758.546875 1840.109375 1758.28125 1839.632812 1757.964844 C 1839.203125 1757.660156 1838.808594 1757.316406 1838.453125 1756.933594 C 1836.847656 1756.101562 1835.570312 1754.921875 1834.613281 1753.390625 C 1821.035156 1740.875 1808.621094 1727.292969 1797.371094 1712.648438 C 1786.121094 1698.003906 1776.199219 1682.507812 1767.605469 1666.160156 C 1759.617188 1650.960938 1752.902344 1635.21875 1747.460938 1618.933594 Z M 1747.460938 1618.933594 " fill-opacity="1" fill-rule="nonzero"/><path fill="#f75d0f" d="M 1460.316406 1627.269531 C 1454.484375 1601.441406 1472.933594 1578.933594 1496.328125 1570.59375 C 1519.722656 1562.253906 1549.535156 1566.460938 1574.183594 1571.777344 C 1585.976562 1574.421875 1597.535156 1577.871094 1608.851562 1582.117188 C 1620.167969 1586.363281 1631.140625 1591.367188 1641.761719 1597.132812 C 1652.386719 1602.898438 1662.5625 1609.367188 1672.292969 1616.539062 C 1682.023438 1623.710938 1691.210938 1631.519531 1699.859375 1639.964844 C 1716.398438 1657.042969 1731.15625 1675.542969 1744.140625 1695.460938 C 1757.273438 1714.277344 1771.296875 1733.023438 1791.222656 1744.976562 C 1791.625 1745.21875 1792.003906 1745.492188 1792.359375 1745.796875 C 1792.714844 1746.101562 1793.042969 1746.433594 1793.34375 1746.792969 C 1793.644531 1747.15625 1793.914062 1747.539062 1794.152344 1747.941406 C 1794.386719 1748.347656 1794.589844 1748.769531 1794.753906 1749.207031 C 1794.921875 1749.648438 1795.050781 1750.097656 1795.140625 1750.554688 C 1795.230469 1751.015625 1795.285156 1751.480469 1795.296875 1751.949219 C 1795.308594 1752.417969 1795.285156 1752.886719 1795.21875 1753.351562 C 1795.15625 1753.816406 1795.050781 1754.269531 1794.910156 1754.71875 C 1795.546875 1756.808594 1795.546875 1758.898438 1794.910156 1760.992188 C 1794.75 1761.542969 1794.535156 1762.078125 1794.269531 1762.589844 C 1794.007812 1763.101562 1793.695312 1763.582031 1793.335938 1764.03125 C 1792.976562 1764.484375 1792.578125 1764.898438 1792.140625 1765.269531 C 1791.703125 1765.644531 1791.234375 1765.972656 1790.730469 1766.257812 C 1790.230469 1766.542969 1789.707031 1766.773438 1789.160156 1766.957031 C 1788.613281 1767.136719 1788.050781 1767.265625 1787.480469 1767.339844 C 1786.910156 1767.414062 1786.335938 1767.429688 1785.761719 1767.394531 C 1785.1875 1767.355469 1784.621094 1767.261719 1784.0625 1767.117188 L 1762.808594 1761.875 C 1706.75 1747.75 1651.574219 1730.75 1597.28125 1710.882812 C 1570.199219 1700.992188 1543.261719 1690.367188 1516.695312 1679.078125 C 1492.710938 1668.820312 1466.589844 1655.019531 1460.316406 1627.269531 Z M 1460.316406 1627.269531 " fill-opacity="1" fill-rule="nonzero"/><path fill="#f75d0f" d="M 1990.25 1751.101562 C 2015.851562 1721.117188 2043.601562 1693.269531 2073.496094 1667.5625 C 2087.664062 1655.386719 2102.273438 1643.652344 2117.328125 1632.511719 C 2132.382812 1621.367188 2147.367188 1612.585938 2165.371094 1613.101562 C 2167.390625 1613.070312 2169.402344 1613.191406 2171.402344 1613.46875 C 2173.40625 1613.746094 2175.375 1614.171875 2177.308594 1614.753906 C 2179.246094 1615.332031 2181.125 1616.054688 2182.949219 1616.921875 C 2184.773438 1617.789062 2186.519531 1618.789062 2188.191406 1619.925781 C 2189.863281 1621.0625 2191.4375 1622.320312 2192.914062 1623.695312 C 2194.394531 1625.074219 2195.757812 1626.554688 2197.007812 1628.144531 C 2198.257812 1629.730469 2199.378906 1631.402344 2200.375 1633.160156 C 2201.367188 1634.921875 2202.222656 1636.746094 2202.933594 1638.636719 C 2203.507812 1640.769531 2203.941406 1642.933594 2204.230469 1645.125 C 2204.523438 1647.320312 2204.667969 1649.519531 2204.667969 1651.730469 C 2204.667969 1653.945312 2204.523438 1656.144531 2204.234375 1658.339844 C 2203.945312 1660.53125 2203.511719 1662.695312 2202.9375 1664.828125 C 2202.363281 1666.964844 2201.652344 1669.054688 2200.804688 1671.097656 C 2199.957031 1673.136719 2198.976562 1675.113281 2197.867188 1677.027344 C 2196.757812 1678.941406 2195.527344 1680.773438 2194.175781 1682.523438 C 2192.828125 1684.273438 2191.367188 1685.929688 2189.796875 1687.488281 C 2177.265625 1700.152344 2163.195312 1710.78125 2147.585938 1719.371094 C 2132.125 1728.644531 2116.039062 1736.664062 2099.324219 1743.425781 C 2083.394531 1749.925781 2067.066406 1755.1875 2050.34375 1759.222656 C 2033.621094 1763.253906 2016.6875 1766.007812 1999.550781 1767.484375 L 1997.1875 1770.214844 C 1996.785156 1770.617188 1996.339844 1770.976562 1995.863281 1771.289062 C 1995.386719 1771.601562 1994.878906 1771.859375 1994.347656 1772.070312 C 1993.816406 1772.277344 1993.269531 1772.429688 1992.703125 1772.523438 C 1992.140625 1772.621094 1991.574219 1772.65625 1991.003906 1772.636719 C 1990.433594 1772.617188 1989.871094 1772.539062 1989.316406 1772.402344 C 1988.761719 1772.265625 1988.226562 1772.074219 1987.710938 1771.828125 C 1987.195312 1771.582031 1986.710938 1771.285156 1986.253906 1770.9375 C 1985.800781 1770.59375 1985.386719 1770.203125 1985.011719 1769.773438 C 1984.636719 1769.308594 1984.304688 1768.816406 1984.019531 1768.296875 C 1983.730469 1767.773438 1983.492188 1767.230469 1983.304688 1766.667969 C 1983.113281 1766.101562 1982.976562 1765.523438 1982.890625 1764.9375 C 1982.804688 1764.347656 1982.773438 1763.753906 1982.792969 1763.160156 C 1982.8125 1762.5625 1982.886719 1761.976562 1983.011719 1761.394531 C 1983.136719 1760.8125 1983.3125 1760.246094 1983.539062 1759.695312 C 1983.769531 1759.144531 1984.042969 1758.617188 1984.363281 1758.117188 C 1984.683594 1757.617188 1985.050781 1757.148438 1985.453125 1756.710938 L 1987.152344 1754.71875 C 1987.824219 1753.203125 1988.855469 1751.996094 1990.25 1751.101562 Z M 1990.25 1751.101562 " fill-opacity="1" fill-rule="nonzero"/></svg>